<svg version="1.1" id="Layer_1" xmlns="http://www.w3.org/2000/svg" x="0" y="0" viewBox="0 0 512 512" style="enable-background:new 0 0 512 512" xml:space="preserve"><path style="fill:#f7b208" d="M424.725 415.125c-138.148 0-250.133-111.989-250.133-250.133 0-59.102 20.613-113.321 54.888-156.127C117.307 33.561 33.314 133.406 33.314 253.002c0 138.142 111.985 250.133 250.133 250.133 79.039 0 149.403-36.757 195.24-94.006-17.398 3.831-35.415 5.996-53.962 5.996z"/><circle style="fill:#e0e0e3" cx="237.122" cy="412.038" r="27.792"/><circle style="fill:#e0e0e3" cx="137.531" cy="285.428" r="23.16"/><circle style="fill:#e0e0e3" cx="101.246" cy="226.756" r="19.3"/><path style="fill:#e0e0e3" d="M174.562 168.998c-.018 0-.037-.006-.059-.006-20.89 0-37.826 16.937-37.826 37.829s16.936 37.829 37.826 37.829c4.293 0 8.346-.87 12.191-2.185-7.54-23.193-11.739-47.855-12.132-73.467z"/><path style="fill:#e0e0e3" d="M293.026 502.932c1.711-.065 3.424-.124 5.127-.223.635-.037 1.262-.096 1.896-.137 1.797-.118 3.593-.235 5.378-.391.496-.044.988-.105 1.483-.151 1.914-.178 3.826-.362 5.727-.584.522-.061 1.038-.141 1.559-.204 1.87-.23 3.738-.463 5.595-.735.325-.047.645-.108.969-.156a245.18 245.18 0 0 0 6.119-.985c.189-.033.376-.074.565-.108a250.19 250.19 0 0 0 6.458-1.23c.043-.009.085-.02.129-.028 58.029-11.954 108.676-44.061 144.449-88.621-17.093 3.691-34.791 5.747-52.987 5.747-.098 0-.196-.006-.294-.007-.158 0-.316.007-.475.007-3.424 0-6.827-.089-10.217-.225-38.742 40.059-92.938 65.073-153.064 65.073-117.684 0-213.075-95.397-213.075-213.075 0-94.785 61.919-175.052 147.49-202.719a251.262 251.262 0 0 1 33.623-55.314C133.083 30.087 57.497 106.809 38.143 203.869c-.012.061-.022.124-.035.186a240.732 240.732 0 0 0-.963 5.121c-.037.204-.066.411-.102.616-.274 1.573-.539 3.15-.784 4.733-.05.324-.091.651-.141.976a246.536 246.536 0 0 0-.632 4.413c-.056.422-.1.847-.154 1.269a245.75 245.75 0 0 0-.504 4.158c-.06.548-.106 1.102-.164 1.651-.131 1.269-.265 2.538-.377 3.812-.063.709-.108 1.422-.164 2.132-.089 1.122-.184 2.241-.259 3.366-.06.908-.1 1.82-.15 2.73-.052.934-.112 1.865-.154 2.802-.052 1.191-.083 2.388-.118 3.582-.02.662-.051 1.32-.065 1.983a254.336 254.336 0 0 0-.061 5.6c0 138.142 111.985 250.133 250.133 250.133 2.468 0 4.928-.037 7.379-.108.733-.018 1.464-.065 2.198-.092z"/><path style="fill:#1c2042" d="M82.619 103.706a8.826 8.826 0 0 0 5.541 1.949 8.845 8.845 0 0 0 6.92-3.319 243.325 243.325 0 0 1 4.12-4.998 8.863 8.863 0 0 0-1.037-12.493 8.862 8.862 0 0 0-12.493 1.037 264.78 264.78 0 0 0-4.42 5.362 8.864 8.864 0 0 0 1.369 12.462z"/><path style="fill:#1c2042" d="M486.215 404.449a8.85 8.85 0 0 0-9.434-3.976c-17.444 3.841-34.958 5.788-52.055 5.788-133.036 0-241.268-108.232-241.268-241.268 0-55.257 18.307-107.329 52.943-150.586a8.862 8.862 0 0 0 .609-10.219 8.851 8.851 0 0 0-9.434-3.977c-42.737 9.407-82.736 29.768-115.671 58.881a8.862 8.862 0 0 0-.771 12.512c3.241 3.669 8.843 4.014 12.512.771A241.96 241.96 0 0 1 207.5 24.103c-27.405 41.94-41.772 90.166-41.772 140.89 0 69.18 26.94 134.221 75.857 183.138 48.918 48.92 113.958 75.86 183.14 75.86 10.112 0 20.351-.632 30.629-1.886-45.245 46.138-106.646 72.167-171.908 72.167-133.035 0-241.267-108.232-241.267-241.268 0-34.597 7.17-67.983 21.312-99.231 2.019-4.459.039-9.712-4.422-11.731a8.864 8.864 0 0 0-11.731 4.422C32.15 180.024 24.45 215.87 24.45 253.005c0 69.18 26.94 134.221 75.857 183.138C149.224 485.059 214.264 512 283.446 512c78.95 0 152.635-35.476 202.16-97.331a8.863 8.863 0 0 0 .609-10.22z"/></svg>