<svg version="1.1" id="Layer_1" xmlns="http://www.w3.org/2000/svg" x="0" y="0" viewBox="0 0 496 496" style="enable-background:new 0 0 496 496" xml:space="preserve"><path style="fill:#f7b208" d="M248 408c-88.8 0-160-72-160-160S160 88 248 88s160 72 160 160-71.2 160-160 160zm0-248.8c-48.8 0-88.8 40-88.8 88.8s40 88.8 88.8 88.8 88.8-40 88.8-88.8-40-88.8-88.8-88.8z"/><circle style="fill:#f4840b" cx="248" cy="22.4" r="22.4"/><circle style="fill:#f7b208" cx="248" cy="473.6" r="22.4"/><path style="fill:#f4840b" d="M154.4 41.6c6.4 10.4 2.4 24-8 30.4s-24 2.4-30.4-8-2.4-24 8-30.4c10.4-6.4 24-3.2 30.4 8z"/><circle style="fill:#f7b208" cx="360.8" cy="443.2" r="22.4"/><path style="fill:#f7b208" d="M64 116c10.4 6.4 14.4 20 8 30.4s-20 14.4-30.4 8-14.4-20-8-30.4c5.6-10.4 19.2-14.4 30.4-8z"/><circle style="fill:#f4840b" cx="443.2" cy="360.8" r="22.4"/><path style="fill:#f7b208" d="M22.4 225.6c12 0 22.4 9.6 22.4 22.4 0 12-9.6 22.4-22.4 22.4S0 260 0 248s9.6-22.4 22.4-22.4z"/><path style="fill:#f4840b" d="M473.6 225.6c12 0 22.4 9.6 22.4 22.4 0 12-9.6 22.4-22.4 22.4s-22.4-9.6-22.4-22.4c0-12 10.4-22.4 22.4-22.4z"/><circle style="fill:#f7b208" cx="52.8" cy="360.8" r="22.4"/><path style="fill:#f4840b" d="M432 116c10.4-6.4 24-2.4 30.4 8s2.4 24-8 30.4-24 2.4-30.4-8c-5.6-10.4-2.4-24.8 8-30.4z"/><path style="fill:#f7b208" d="M116 432c6.4-10.4 20-14.4 30.4-8s14.4 20 8 30.4-20 14.4-30.4 8c-10.4-5.6-14.4-19.2-8-30.4z"/><path style="fill:#f4840b" d="M341.6 41.6c6.4-10.4 20-14.4 30.4-8s14.4 20 8 30.4-20 14.4-30.4 8-14.4-20-8-30.4zM248 88c-51.2 0-96.8 24.8-126.4 62.4l51.2 51.2c16-24.8 44-41.6 75.2-41.6 48.8 0 88.8 40 88.8 88.8 0 32-16.8 60-41.6 75.2l51.2 51.2C384 344.8 408 299.2 408 248c0-88.8-71.2-160-160-160z"/></svg>