<svg version="1.1" id="Capa_1" xmlns="http://www.w3.org/2000/svg" x="0" y="0" viewBox="0 0 204.249 204.249" style="enable-background:new 0 0 204.249 204.249" xml:space="preserve"><path style="fill:#2c2323" d="M170.951 191.642c-40.194 0-107.963-11.842-115.017-90.337H0l88.698-88.698 88.698 88.698h-58.221c-1.174 8.779-2.881 34.174 12.848 53.704 13.9 17.25 37.947 26 71.466 26l.759 7.938c-.572.097-14.243 2.695-33.297 2.695zM19.319 93.295h44.074l.24 3.751c4.259 67 53.89 84.45 98.318 86.401-15.375-4.778-27.486-12.63-36.211-23.484-21.616-26.906-14.19-62.043-13.868-63.521l.694-3.149h45.498L88.698 23.926 19.319 93.295z"/></svg>